<svg width="25" height="25" viewBox="0 0 25 25" fill="none" xmlns="http://www.w3.org/2000/svg">
<path d="M17.1809 9.71547C17.2506 9.78512 17.3059 9.86784 17.3437 9.95889C17.3814 10.0499 17.4009 10.1475 17.4009 10.2461C17.4009 10.3447 17.3814 10.4423 17.3437 10.5333C17.3059 10.6243 17.2506 10.7071 17.1809 10.7767L11.9309 16.0267C11.8612 16.0965 11.7785 16.1518 11.6875 16.1895C11.5964 16.2273 11.4988 16.2467 11.4003 16.2467C11.3017 16.2467 11.2041 16.2273 11.1131 16.1895C11.022 16.1518 10.9393 16.0965 10.8696 16.0267L8.61965 13.7767C8.47892 13.636 8.39986 13.4451 8.39986 13.2461C8.39986 13.0471 8.47892 12.8562 8.61965 12.7155C8.76038 12.5747 8.95125 12.4957 9.15027 12.4957C9.3493 12.4957 9.54017 12.5747 9.6809 12.7155L11.4003 14.4358L16.1196 9.71547C16.1893 9.64574 16.272 9.59042 16.3631 9.55267C16.4541 9.51493 16.5517 9.4955 16.6503 9.4955C16.7488 9.4955 16.8464 9.51493 16.9375 9.55267C17.0285 9.59042 17.1112 9.64574 17.1809 9.71547ZM22.6503 12.4961C22.6503 14.4245 22.0784 16.3095 21.0071 17.9129C19.9358 19.5163 18.413 20.766 16.6314 21.5039C14.8499 22.2419 12.8895 22.435 10.9981 22.0588C9.10683 21.6825 7.36954 20.7539 6.00598 19.3904C4.64242 18.0268 3.71382 16.2895 3.33762 14.3982C2.96141 12.5069 3.15449 10.5465 3.89245 8.76493C4.6304 6.98335 5.88008 5.46061 7.48346 4.38927C9.08684 3.31792 10.9719 2.74609 12.9003 2.74609C15.4853 2.74882 17.9637 3.77693 19.7915 5.60482C21.6194 7.43271 22.6475 9.91107 22.6503 12.4961ZM21.1503 12.4961C21.1503 10.8644 20.6664 9.26934 19.7599 7.91264C18.8534 6.55593 17.5649 5.49851 16.0574 4.87409C14.5499 4.24966 12.8911 4.08629 11.2908 4.40462C9.69043 4.72294 8.22043 5.50868 7.06664 6.66246C5.91286 7.81625 5.12712 9.28626 4.80879 10.8866C4.49047 12.4869 4.65384 14.1457 5.27827 15.6532C5.90269 17.1607 6.96011 18.4492 8.31682 19.3557C9.67352 20.2622 11.2686 20.7461 12.9003 20.7461C15.0875 20.7436 17.1845 19.8736 18.7312 18.327C20.2778 16.7803 21.1478 14.6834 21.1503 12.4961Z" fill="#6366F1"/>
</svg>
