<svg width="255" height="56" viewBox="0 0 255 56" fill="none" xmlns="http://www.w3.org/2000/svg">
<g clip-path="url(#clip0_6_428)">
<path d="M245.493 -0.00366211H10.3077C5.11211 -0.00366211 0.900269 3.13034 0.900269 6.99634V48.9963C0.900269 52.8623 5.11211 55.9963 10.3077 55.9963H245.493C250.688 55.9963 254.9 52.8623 254.9 48.9963V6.99634C254.9 3.13034 250.688 -0.00366211 245.493 -0.00366211Z" fill="black"/>
<path d="M90.1202 14.3324C90.1848 15.3701 89.6747 16.3822 88.709 17.1324C87.6299 17.9665 86.1248 18.4196 84.5698 18.3784C82.1847 18.3645 80.0432 17.2881 79.1355 15.6469C78.2278 14.0056 78.7307 12.1194 80.4117 10.8604C81.504 10.0307 83.0092 9.57452 84.5698 9.6004C85.3652 9.59842 86.1527 9.71753 86.884 9.9504C87.5648 10.1547 88.1709 10.4762 88.6526 10.8884L87.6554 11.6304C86.8941 10.9565 85.7511 10.5884 84.5698 10.6364C83.3823 10.6321 82.2437 10.9879 81.4165 11.6219C80.5893 12.2559 80.145 13.1133 80.1859 13.9964C80.1607 15.3309 81.2169 16.5456 82.8632 17.0754C84.5094 17.6051 86.4223 17.346 87.7119 16.4184C88.2908 15.9515 88.6247 15.3453 88.6526 14.7104H84.5698V13.7024H90.0449C90.0951 13.9103 90.1203 14.1211 90.1202 14.3324ZM98.7373 10.8324H93.6573V13.4924H98.2858V14.5004H93.6573V17.1604H98.7373V18.1964H92.1522V9.79639H98.7373V10.8324ZM104.909 18.1964H103.46V10.8324H100.299V9.79639H108.145V10.8324H104.909V18.1964ZM113.676 18.1964V9.79639H115.125V18.1964H113.676ZM121.56 18.1964H120.111V10.8324H116.95V9.79639H124.702V10.8324H121.56V18.1964ZM139.396 17.1044C137.106 18.7987 133.407 18.7987 131.118 17.1044C128.898 15.3561 128.898 12.6227 131.118 10.8744C132.213 10.0536 133.703 9.59204 135.257 9.59204C136.811 9.59204 138.301 10.0536 139.396 10.8744C141.625 12.6199 141.625 15.3589 139.396 17.1044ZM132.19 16.4044C133.886 17.661 136.628 17.661 138.324 16.4044C139.989 15.0382 139.989 12.9546 138.324 11.5884C136.628 10.3318 133.886 10.3318 132.19 11.5884C130.525 12.9546 130.525 15.0382 132.19 16.4044ZM143.103 18.1964V9.79639H144.871L150.365 16.3344V9.79639H151.814V18.1964H150.309L144.57 11.3504V18.1964H143.103Z" fill="white" stroke="white" stroke-width="0.2"/>
<path d="M129.104 30.4463C124.693 30.4618 121.132 33.1325 121.146 36.4149C121.16 39.6973 124.743 42.3514 129.155 42.3463C133.566 42.3411 137.138 39.6788 137.138 36.3963C137.169 34.8065 136.332 33.2753 134.817 32.1536C133.303 31.032 131.241 30.4158 129.104 30.4463ZM129.104 40.0083C127.116 40.1118 125.245 39.3004 124.386 37.9621C123.527 36.6239 123.854 35.0309 125.212 33.945C126.569 32.8591 128.681 32.501 130.537 33.0421C132.392 33.5831 133.615 34.9132 133.62 36.3963C133.681 37.3241 133.236 38.2309 132.386 38.911C131.536 39.5911 130.352 39.9868 129.104 40.0083ZM111.588 30.4463C107.174 30.4541 103.603 33.1214 103.61 36.4056C103.617 39.6899 107.199 42.3489 111.613 42.3463C116.027 42.3437 119.603 39.6806 119.603 36.3963C119.634 34.8065 118.796 33.2753 117.282 32.1536C115.767 31.032 113.706 30.4158 111.569 30.4463H111.588ZM111.588 40.0083C109.599 40.1176 107.722 39.3103 106.857 37.9729C105.991 36.6355 106.314 35.0404 107.669 33.9515C109.025 32.8626 111.138 32.5017 112.996 33.0415C114.854 33.5813 116.079 34.9121 116.085 36.3963C116.146 37.3241 115.701 38.2309 114.851 38.911C114 39.5911 112.817 39.9868 111.569 40.0083H111.588ZM90.7222 32.2803V34.8003H98.8502C98.7228 35.9873 98.0597 37.1072 96.9688 37.9783C95.3244 39.2246 93.0488 39.8959 90.7034 39.8263C85.7157 39.8263 81.6723 36.8177 81.6723 33.1063C81.6723 29.395 85.7157 26.3863 90.7034 26.3863C92.9947 26.3585 95.2072 27.008 96.8559 28.1923L99.2453 26.4143C96.9968 24.7201 93.9221 23.7757 90.7222 23.7963C86.1671 23.6644 81.88 25.3975 79.5497 28.3128C77.2194 31.2282 77.2194 34.8585 79.5497 37.7739C81.88 40.6892 86.1671 42.4222 90.7222 42.2903C93.9805 42.3999 97.1432 41.4555 99.3959 39.7003C101.367 38.0888 102.419 35.9704 102.331 33.7923C102.337 33.2617 102.274 32.7319 102.143 32.2103L90.7222 32.2803ZM175.972 34.2403C174.968 32.0412 172.243 30.5318 169.124 30.4463C167.043 30.4433 165.054 31.0811 163.628 32.2083C162.203 33.3355 161.468 34.8515 161.598 36.3963C161.551 37.9774 162.371 39.5044 163.869 40.6265C165.366 41.7487 167.412 42.3695 169.537 42.3463C172.211 42.3571 174.713 41.3684 176.198 39.7143L173.47 38.3143C172.641 39.3419 171.148 39.9694 169.537 39.9663C167.87 40.0136 166.333 39.2974 165.662 38.1603L176.367 34.8703L175.972 34.2403ZM165.06 36.2283C164.983 35.3536 165.382 34.4925 166.168 33.8394C166.953 33.1862 168.06 32.7958 169.236 32.7563C170.477 32.6955 171.647 33.1913 172.209 34.0163L165.06 36.2283ZM156.367 41.9963H159.885V24.4963H156.367V41.9963ZM150.61 31.7763H150.478C149.406 30.8841 147.872 30.3748 146.264 30.3763C141.993 30.5304 138.637 33.1518 138.637 36.3333C138.637 39.5149 141.993 42.1362 146.264 42.2903C147.878 42.3105 149.421 41.7979 150.478 40.8903H150.591V41.7443C150.591 44.0263 148.954 45.2443 146.32 45.2443C144.526 45.2131 142.935 44.3778 142.294 43.1303L139.227 44.0823C140.408 46.2199 143.214 47.6101 146.32 47.5964C150.44 47.5964 153.846 45.7903 153.846 41.3943V30.7963H150.61V31.7763ZM146.583 40.0083C144.068 39.8434 142.138 38.2755 142.138 36.3963C142.138 34.5171 144.068 32.9493 146.583 32.7843C147.799 32.8308 148.938 33.2404 149.742 33.9204C150.546 34.6004 150.947 35.4932 150.854 36.3963C150.958 37.3036 150.558 38.2029 149.748 38.8852C148.938 39.5675 147.787 39.9734 146.565 40.0083H146.583ZM192.454 24.4963H184.044V41.9963H187.562V35.3603H192.473C195.206 35.5064 197.82 34.5042 199.246 32.7633C200.673 31.0223 200.673 28.8343 199.246 27.0934C197.82 25.3524 195.206 24.3502 192.473 24.4963H192.454ZM192.454 32.8963H187.543V26.9323H192.529C194.758 26.9323 196.565 28.2768 196.565 29.9353C196.565 31.5938 194.758 32.9383 192.529 32.9383L192.454 32.8963ZM214.147 30.3763C211.53 30.2599 209.069 31.3103 207.882 33.0503L211.005 34.0163C211.635 33.1535 212.889 32.6483 214.204 32.7283C215.106 32.6499 216.013 32.8445 216.72 33.2683C217.428 33.6922 217.877 34.3097 217.967 34.9823V35.1643C216.837 34.7191 215.577 34.4883 214.298 34.4923C210.93 34.4923 207.525 35.8923 207.525 38.4263C207.592 39.5179 208.249 40.5429 209.348 41.2681C210.447 41.9932 211.893 42.3569 213.357 42.2763C215.162 42.3728 216.894 41.7285 217.873 40.5963H217.986V41.9963H221.372V35.2623C221.372 32.1963 218.249 30.4183 214.241 30.4183L214.147 30.3763ZM213.715 39.9663C212.567 39.9663 210.968 39.5323 210.968 38.4823C210.968 37.0823 212.962 36.6203 214.731 36.6203C215.848 36.5998 216.953 36.8029 217.929 37.2083C217.686 38.7755 215.928 39.9699 213.809 40.0083L213.715 39.9663ZM233.715 30.7963L229.688 38.3843H229.576L225.399 30.7963H221.636L227.901 41.4083L224.326 47.3023H227.995L237.628 30.7963H233.715ZM202.087 41.9963H205.605V24.4963H202.087V41.9963Z" fill="white"/>
<path d="M20.5432 10.5523C19.93 11.0999 19.6205 11.8009 19.6778 12.5123V43.4803C19.6205 44.1918 19.93 44.8928 20.5432 45.4403L20.6749 45.5383L43.9865 28.2063V27.8003L20.6749 10.4543L20.5432 10.5523Z" fill="url(#paint0_linear_6_428)"/>
<path d="M51.7 33.9884L43.986 28.2064V27.8004L51.7 22.0044L51.8694 22.0744L61.1074 25.9804C63.7415 27.0864 63.7415 28.9064 61.1074 30.0264L51.907 33.9184L51.7 33.9884Z" fill="url(#paint1_linear_6_428)"/>
<path d="M51.926 33.9043L43.9861 27.9963L20.5428 45.4403C21.6505 46.1649 23.2944 46.2002 24.4563 45.5243L51.9448 33.9043" fill="url(#paint2_linear_6_428)"/>
<path d="M51.9263 22.0885L24.4379 10.4685C23.2759 9.79264 21.6321 9.82793 20.5244 10.5525L43.9865 27.9965L51.9263 22.0885Z" fill="url(#paint3_linear_6_428)"/>
</g>
<defs>
<linearGradient id="paint0_linear_6_428" x1="1503.74" y1="184.054" x2="79.4297" y2="2098.21" gradientUnits="userSpaceOnUse">
<stop stop-color="#00A0FF"/>
<stop offset="0.01" stop-color="#00A1FF"/>
<stop offset="0.26" stop-color="#00BEFF"/>
<stop offset="0.51" stop-color="#00D2FF"/>
<stop offset="0.76" stop-color="#00DFFF"/>
<stop offset="1" stop-color="#00E3FF"/>
</linearGradient>
<linearGradient id="paint1_linear_6_428" x1="2100.45" y1="621.204" x2="-2450.86" y2="621.204" gradientUnits="userSpaceOnUse">
<stop stop-color="#FFE000"/>
<stop offset="0.41" stop-color="#FFBD00"/>
<stop offset="0.78" stop-color="#FFA500"/>
<stop offset="1" stop-color="#FF9C00"/>
</linearGradient>
<linearGradient id="paint2_linear_6_428" x1="2727.99" y1="584.773" x2="294.537" y2="3853.7" gradientUnits="userSpaceOnUse">
<stop stop-color="#FF3A44"/>
<stop offset="1" stop-color="#C31162"/>
</linearGradient>
<linearGradient id="paint3_linear_6_428" x1="-568.379" y1="-203.127" x2="517.651" y2="1256.41" gradientUnits="userSpaceOnUse">
<stop stop-color="#32A071"/>
<stop offset="0.07" stop-color="#2DA771"/>
<stop offset="0.48" stop-color="#15CF74"/>
<stop offset="0.8" stop-color="#06E775"/>
<stop offset="1" stop-color="#00F076"/>
</linearGradient>
<clipPath id="clip0_6_428">
<rect width="254" height="56" fill="white" transform="translate(0.900269 -0.00366211)"/>
</clipPath>
</defs>
</svg>
