<svg width="33" height="33" viewBox="0 0 33 33" fill="none" xmlns="http://www.w3.org/2000/svg">
<path d="M30.5669 26.4962H28.5669V12.4962C28.5669 11.9657 28.3562 11.457 27.9811 11.082C27.606 10.7069 27.0973 10.4962 26.5669 10.4962H18.5669V4.49617C18.5671 4.134 18.469 3.77856 18.283 3.4678C18.097 3.15703 17.8302 2.9026 17.5109 2.73166C17.1916 2.56072 16.8319 2.47969 16.4701 2.49722C16.1084 2.51474 15.7582 2.63017 15.4569 2.83117L5.45689 9.49617C5.18257 9.6792 4.95776 9.92722 4.80248 10.2182C4.6472 10.5091 4.56627 10.8339 4.56689 11.1637V26.4962H2.56689C2.30168 26.4962 2.04732 26.6015 1.85979 26.7891C1.67225 26.9766 1.56689 27.231 1.56689 27.4962C1.56689 27.7614 1.67225 28.0157 1.85979 28.2033C2.04732 28.3908 2.30168 28.4962 2.56689 28.4962H30.5669C30.8321 28.4962 31.0865 28.3908 31.274 28.2033C31.4615 28.0157 31.5669 27.7614 31.5669 27.4962C31.5669 27.231 31.4615 26.9766 31.274 26.7891C31.0865 26.6015 30.8321 26.4962 30.5669 26.4962ZM26.5669 12.4962V26.4962H18.5669V12.4962H26.5669ZM6.56689 11.1637L16.5669 4.49617V26.4962H6.56689V11.1637ZM14.5669 14.4962V16.4962C14.5669 16.7614 14.4615 17.0157 14.274 17.2033C14.0865 17.3908 13.8321 17.4962 13.5669 17.4962C13.3017 17.4962 13.0473 17.3908 12.8598 17.2033C12.6723 17.0157 12.5669 16.7614 12.5669 16.4962V14.4962C12.5669 14.231 12.6723 13.9766 12.8598 13.7891C13.0473 13.6015 13.3017 13.4962 13.5669 13.4962C13.8321 13.4962 14.0865 13.6015 14.274 13.7891C14.4615 13.9766 14.5669 14.231 14.5669 14.4962ZM10.5669 14.4962V16.4962C10.5669 16.7614 10.4615 17.0157 10.274 17.2033C10.0865 17.3908 9.83211 17.4962 9.56689 17.4962C9.30168 17.4962 9.04732 17.3908 8.85979 17.2033C8.67225 17.0157 8.56689 16.7614 8.56689 16.4962V14.4962C8.56689 14.231 8.67225 13.9766 8.85979 13.7891C9.04732 13.6015 9.30168 13.4962 9.56689 13.4962C9.83211 13.4962 10.0865 13.6015 10.274 13.7891C10.4615 13.9766 10.5669 14.231 10.5669 14.4962ZM10.5669 21.4962V23.4962C10.5669 23.7614 10.4615 24.0157 10.274 24.2033C10.0865 24.3908 9.83211 24.4962 9.56689 24.4962C9.30168 24.4962 9.04732 24.3908 8.85979 24.2033C8.67225 24.0157 8.56689 23.7614 8.56689 23.4962V21.4962C8.56689 21.231 8.67225 20.9766 8.85979 20.7891C9.04732 20.6015 9.30168 20.4962 9.56689 20.4962C9.83211 20.4962 10.0865 20.6015 10.274 20.7891C10.4615 20.9766 10.5669 21.231 10.5669 21.4962ZM14.5669 21.4962V23.4962C14.5669 23.7614 14.4615 24.0157 14.274 24.2033C14.0865 24.3908 13.8321 24.4962 13.5669 24.4962C13.3017 24.4962 13.0473 24.3908 12.8598 24.2033C12.6723 24.0157 12.5669 23.7614 12.5669 23.4962V21.4962C12.5669 21.231 12.6723 20.9766 12.8598 20.7891C13.0473 20.6015 13.3017 20.4962 13.5669 20.4962C13.8321 20.4962 14.0865 20.6015 14.274 20.7891C14.4615 20.9766 14.5669 21.231 14.5669 21.4962Z" fill="#71717A"/>
</svg>
