<svg width="33" height="33" viewBox="0 0 33 33" fill="none" xmlns="http://www.w3.org/2000/svg">
<path d="M26.9003 7.49622H23.4353L21.7315 4.94122C21.6402 4.80441 21.5166 4.69222 21.3716 4.6146C21.2266 4.53698 21.0647 4.49631 20.9003 4.49622H12.9003C12.7358 4.49631 12.5739 4.53698 12.4289 4.6146C12.2839 4.69222 12.1603 4.80441 12.069 4.94122L10.364 7.49622H6.90027C6.10462 7.49622 5.34156 7.81229 4.77895 8.3749C4.21634 8.9375 3.90027 9.70057 3.90027 10.4962V24.4962C3.90027 25.2919 4.21634 26.0549 4.77895 26.6175C5.34156 27.1801 6.10462 27.4962 6.90027 27.4962H26.9003C27.6959 27.4962 28.459 27.1801 29.0216 26.6175C29.5842 26.0549 29.9003 25.2919 29.9003 24.4962V10.4962C29.9003 9.70057 29.5842 8.9375 29.0216 8.3749C28.459 7.81229 27.6959 7.49622 26.9003 7.49622ZM27.9003 24.4962C27.9003 24.7614 27.7949 25.0158 27.6074 25.2033C27.4198 25.3909 27.1655 25.4962 26.9003 25.4962H6.90027C6.63505 25.4962 6.3807 25.3909 6.19316 25.2033C6.00563 25.0158 5.90027 24.7614 5.90027 24.4962V10.4962C5.90027 10.231 6.00563 9.97665 6.19316 9.78911C6.3807 9.60157 6.63505 9.49622 6.90027 9.49622H10.9003C11.0649 9.49632 11.2271 9.45576 11.3723 9.37813C11.5176 9.3005 11.6414 9.1882 11.7328 9.05122L13.4353 6.49622H20.364L22.0678 9.05122C22.1592 9.1882 22.283 9.3005 22.4282 9.37813C22.5734 9.45576 22.7356 9.49632 22.9003 9.49622H26.9003C27.1655 9.49622 27.4198 9.60157 27.6074 9.78911C27.7949 9.97665 27.9003 10.231 27.9003 10.4962V24.4962ZM16.9003 11.4962C15.8125 11.4962 14.7491 11.8188 13.8446 12.4231C12.9402 13.0275 12.2352 13.8865 11.8189 14.8915C11.4026 15.8965 11.2937 17.0023 11.5059 18.0692C11.7182 19.1361 12.242 20.1161 13.0112 20.8853C13.7804 21.6545 14.7604 22.1783 15.8273 22.3905C16.8942 22.6028 18 22.4938 19.005 22.0776C20.01 21.6613 20.869 20.9563 21.4734 20.0519C22.0777 19.1474 22.4003 18.084 22.4003 16.9962C22.3986 15.538 21.8186 14.14 20.7875 13.109C19.7564 12.0779 18.3585 11.4979 16.9003 11.4962ZM16.9003 20.4962C16.208 20.4962 15.5313 20.2909 14.9558 19.9064C14.3802 19.5218 13.9316 18.9751 13.6667 18.3356C13.4018 17.6961 13.3325 16.9923 13.4675 16.3134C13.6026 15.6345 13.9359 15.0108 14.4254 14.5213C14.9149 14.0319 15.5385 13.6985 16.2175 13.5635C16.8964 13.4284 17.6001 13.4977 18.2397 13.7626C18.8792 14.0275 19.4258 14.4761 19.8104 15.0517C20.195 15.6273 20.4003 16.304 20.4003 16.9962C20.4003 17.9245 20.0315 18.8147 19.3751 19.4711C18.7188 20.1275 17.8285 20.4962 16.9003 20.4962Z" fill="#6366F1"/>
</svg>
