<svg width="25" height="25" viewBox="0 0 25 25" fill="none" xmlns="http://www.w3.org/2000/svg">
<path d="M12.1503 4.24625V1.99625C12.1503 1.79733 12.2293 1.60657 12.3699 1.46592C12.5106 1.32526 12.7014 1.24625 12.9003 1.24625C13.0992 1.24625 13.2899 1.32526 13.4306 1.46592C13.5713 1.60657 13.6503 1.79733 13.6503 1.99625V4.24625C13.6503 4.44516 13.5713 4.63592 13.4306 4.77658C13.2899 4.91723 13.0992 4.99625 12.9003 4.99625C12.7014 4.99625 12.5106 4.91723 12.3699 4.77658C12.2293 4.63592 12.1503 4.44516 12.1503 4.24625ZM18.9003 12.4962C18.9003 13.6829 18.5484 14.843 17.8891 15.8297C17.2298 16.8164 16.2927 17.5854 15.1964 18.0395C14.1 18.4936 12.8936 18.6125 11.7297 18.381C10.5658 18.1494 9.49674 17.578 8.65763 16.7389C7.81851 15.8998 7.24707 14.8307 7.01556 13.6668C6.78405 12.5029 6.90287 11.2965 7.35699 10.2001C7.81112 9.10379 8.58015 8.16672 9.56685 7.50743C10.5535 6.84814 11.7136 6.49625 12.9003 6.49625C14.491 6.49798 16.0161 7.13068 17.141 8.25552C18.2658 9.38037 18.8985 10.9055 18.9003 12.4962ZM17.4003 12.4962C17.4003 11.6062 17.1363 10.7362 16.6419 9.99618C16.1474 9.25616 15.4446 8.67938 14.6223 8.33879C13.8001 7.99819 12.8953 7.90908 12.0224 8.08271C11.1494 8.25635 10.3476 8.68493 9.71829 9.31427C9.08895 9.9436 8.66037 10.7454 8.48674 11.6183C8.3131 12.4913 8.40222 13.3961 8.74281 14.2183C9.08341 15.0406 9.66018 15.7434 10.4002 16.2379C11.1402 16.7323 12.0103 16.9962 12.9003 16.9962C14.0934 16.995 15.2372 16.5205 16.0809 15.6769C16.9245 14.8332 17.399 13.6893 17.4003 12.4962ZM6.36964 7.02687C6.51037 7.1676 6.70125 7.24666 6.90027 7.24666C7.09929 7.24666 7.29016 7.1676 7.43089 7.02687C7.57162 6.88614 7.65069 6.69527 7.65069 6.49625C7.65069 6.29722 7.57162 6.10635 7.43089 5.96562L5.93089 4.46562C5.79016 4.32489 5.59929 4.24583 5.40027 4.24583C5.20125 4.24583 5.01037 4.32489 4.86964 4.46562C4.72891 4.60635 4.64985 4.79722 4.64985 4.99625C4.64985 5.19527 4.72891 5.38614 4.86964 5.52687L6.36964 7.02687ZM6.36964 17.9656L4.86964 19.4656C4.72891 19.6064 4.64985 19.7972 4.64985 19.9962C4.64985 20.1953 4.72891 20.3861 4.86964 20.5269C5.01037 20.6676 5.20125 20.7467 5.40027 20.7467C5.59929 20.7467 5.79016 20.6676 5.93089 20.5269L7.43089 19.0269C7.50058 18.9572 7.55585 18.8745 7.59356 18.7834C7.63128 18.6924 7.65069 18.5948 7.65069 18.4962C7.65069 18.3977 7.63128 18.3001 7.59356 18.2091C7.55585 18.118 7.50058 18.0353 7.43089 17.9656C7.36121 17.8959 7.27849 17.8407 7.18744 17.803C7.0964 17.7652 6.99881 17.7458 6.90027 17.7458C6.80172 17.7458 6.70414 17.7652 6.6131 17.803C6.52205 17.8407 6.43933 17.8959 6.36964 17.9656ZM18.9003 7.24625C18.9988 7.24632 19.0964 7.22699 19.1874 7.18935C19.2785 7.15171 19.3612 7.0965 19.4309 7.02687L20.9309 5.52687C21.0716 5.38614 21.1507 5.19527 21.1507 4.99625C21.1507 4.79722 21.0716 4.60635 20.9309 4.46562C20.7902 4.32489 20.5993 4.24583 20.4003 4.24583C20.2012 4.24583 20.0104 4.32489 19.8696 4.46562L18.3696 5.96562C18.2646 6.07051 18.1931 6.2042 18.1641 6.34977C18.1351 6.49533 18.15 6.64622 18.2068 6.78334C18.2636 6.92046 18.3598 7.03763 18.4833 7.12004C18.6067 7.20244 18.7518 7.24636 18.9003 7.24625ZM19.4309 17.9656C19.2902 17.8249 19.0993 17.7458 18.9003 17.7458C18.7012 17.7458 18.5104 17.8249 18.3696 17.9656C18.2289 18.1064 18.1499 18.2972 18.1499 18.4962C18.1499 18.6953 18.2289 18.8861 18.3696 19.0269L19.8696 20.5269C19.9393 20.5966 20.0221 20.6518 20.1131 20.6895C20.2041 20.7273 20.3017 20.7467 20.4003 20.7467C20.4988 20.7467 20.5964 20.7273 20.6874 20.6895C20.7785 20.6518 20.8612 20.5966 20.9309 20.5269C21.0006 20.4572 21.0559 20.3745 21.0936 20.2834C21.1313 20.1924 21.1507 20.0948 21.1507 19.9962C21.1507 19.8977 21.1313 19.8001 21.0936 19.7091C21.0559 19.618 21.0006 19.5353 20.9309 19.4656L19.4309 17.9656ZM5.40027 12.4962C5.40027 12.2973 5.32125 12.1066 5.1806 11.9659C5.03995 11.8253 4.84918 11.7462 4.65027 11.7462H2.40027C2.20136 11.7462 2.01059 11.8253 1.86994 11.9659C1.72929 12.1066 1.65027 12.2973 1.65027 12.4962C1.65027 12.6952 1.72929 12.8859 1.86994 13.0266C2.01059 13.1672 2.20136 13.2462 2.40027 13.2462H4.65027C4.84918 13.2462 5.03995 13.1672 5.1806 13.0266C5.32125 12.8859 5.40027 12.6952 5.40027 12.4962ZM12.9003 19.9962C12.7014 19.9962 12.5106 20.0753 12.3699 20.2159C12.2293 20.3566 12.1503 20.5473 12.1503 20.7462V22.9962C12.1503 23.1952 12.2293 23.3859 12.3699 23.5266C12.5106 23.6672 12.7014 23.7462 12.9003 23.7462C13.0992 23.7462 13.2899 23.6672 13.4306 23.5266C13.5713 23.3859 13.6503 23.1952 13.6503 22.9962V20.7462C13.6503 20.5473 13.5713 20.3566 13.4306 20.2159C13.2899 20.0753 13.0992 19.9962 12.9003 19.9962ZM23.4003 11.7462H21.1503C20.9514 11.7462 20.7606 11.8253 20.6199 11.9659C20.4793 12.1066 20.4003 12.2973 20.4003 12.4962C20.4003 12.6952 20.4793 12.8859 20.6199 13.0266C20.7606 13.1672 20.9514 13.2462 21.1503 13.2462H23.4003C23.5992 13.2462 23.7899 13.1672 23.9306 13.0266C24.0713 12.8859 24.1503 12.6952 24.1503 12.4962C24.1503 12.2973 24.0713 12.1066 23.9306 11.9659C23.7899 11.8253 23.5992 11.7462 23.4003 11.7462Z" fill="#18181B"/>
</svg>
