<svg width="33" height="33" viewBox="0 0 33 33" fill="none" xmlns="http://www.w3.org/2000/svg">
<path d="M25.9004 7.49622H4.90039C4.10474 7.49622 3.34168 7.81229 2.77907 8.3749C2.21646 8.9375 1.90039 9.70057 1.90039 10.4962V22.4962C1.90039 23.2919 2.21646 24.0549 2.77907 24.6175C3.34168 25.1801 4.10474 25.4962 4.90039 25.4962H25.9004C26.696 25.4962 27.4591 25.1801 28.0217 24.6175C28.5843 24.0549 28.9004 23.2919 28.9004 22.4962V10.4962C28.9004 9.70057 28.5843 8.9375 28.0217 8.3749C27.4591 7.81229 26.696 7.49622 25.9004 7.49622ZM26.9004 22.4962C26.9004 22.7614 26.795 23.0158 26.6075 23.2033C26.42 23.3909 26.1656 23.4962 25.9004 23.4962H4.90039C4.63517 23.4962 4.38082 23.3909 4.19328 23.2033C4.00575 23.0158 3.90039 22.7614 3.90039 22.4962V10.4962C3.90039 10.231 4.00575 9.97665 4.19328 9.78911C4.38082 9.60157 4.63517 9.49622 4.90039 9.49622H25.9004C26.1656 9.49622 26.42 9.60157 26.6075 9.78911C26.795 9.97665 26.9004 10.231 26.9004 10.4962V22.4962ZM23.9004 12.4962V20.4962C23.9004 20.7614 23.795 21.0158 23.6075 21.2033C23.42 21.3909 23.1656 21.4962 22.9004 21.4962C22.6352 21.4962 22.3808 21.3909 22.1933 21.2033C22.0057 21.0158 21.9004 20.7614 21.9004 20.4962V12.4962C21.9004 12.231 22.0057 11.9766 22.1933 11.7891C22.3808 11.6016 22.6352 11.4962 22.9004 11.4962C23.1656 11.4962 23.42 11.6016 23.6075 11.7891C23.795 11.9766 23.9004 12.231 23.9004 12.4962ZM18.9004 12.4962V20.4962C18.9004 20.7614 18.795 21.0158 18.6075 21.2033C18.42 21.3909 18.1656 21.4962 17.9004 21.4962C17.6352 21.4962 17.3808 21.3909 17.1933 21.2033C17.0057 21.0158 16.9004 20.7614 16.9004 20.4962V12.4962C16.9004 12.231 17.0057 11.9766 17.1933 11.7891C17.3808 11.6016 17.6352 11.4962 17.9004 11.4962C18.1656 11.4962 18.42 11.6016 18.6075 11.7891C18.795 11.9766 18.9004 12.231 18.9004 12.4962ZM13.9004 12.4962V20.4962C13.9004 20.7614 13.795 21.0158 13.6075 21.2033C13.42 21.3909 13.1656 21.4962 12.9004 21.4962C12.6352 21.4962 12.3808 21.3909 12.1933 21.2033C12.0057 21.0158 11.9004 20.7614 11.9004 20.4962V12.4962C11.9004 12.231 12.0057 11.9766 12.1933 11.7891C12.3808 11.6016 12.6352 11.4962 12.9004 11.4962C13.1656 11.4962 13.42 11.6016 13.6075 11.7891C13.795 11.9766 13.9004 12.231 13.9004 12.4962ZM8.90039 12.4962V20.4962C8.90039 20.7614 8.79503 21.0158 8.6075 21.2033C8.41996 21.3909 8.16561 21.4962 7.90039 21.4962C7.63517 21.4962 7.38082 21.3909 7.19328 21.2033C7.00575 21.0158 6.90039 20.7614 6.90039 20.4962V12.4962C6.90039 12.231 7.00575 11.9766 7.19328 11.7891C7.38082 11.6016 7.63517 11.4962 7.90039 11.4962C8.16561 11.4962 8.41996 11.6016 8.6075 11.7891C8.79503 11.9766 8.90039 12.231 8.90039 12.4962ZM32.9004 12.4962V20.4962C32.9004 20.7614 32.795 21.0158 32.6075 21.2033C32.42 21.3909 32.1656 21.4962 31.9004 21.4962C31.6352 21.4962 31.3808 21.3909 31.1933 21.2033C31.0057 21.0158 30.9004 20.7614 30.9004 20.4962V12.4962C30.9004 12.231 31.0057 11.9766 31.1933 11.7891C31.3808 11.6016 31.6352 11.4962 31.9004 11.4962C32.1656 11.4962 32.42 11.6016 32.6075 11.7891C32.795 11.9766 32.9004 12.231 32.9004 12.4962Z" fill="#6366F1"/>
</svg>
