<svg width="33" height="33" viewBox="0 0 33 33" fill="none" xmlns="http://www.w3.org/2000/svg">
<path d="M23.1503 4.49634C20.569 4.49634 18.309 5.60634 16.9003 7.48259C15.4915 5.60634 13.2315 4.49634 10.6503 4.49634C8.59555 4.49865 6.62565 5.31591 5.17275 6.76882C3.71984 8.22172 2.90258 10.1916 2.90027 12.2463C2.90027 20.9963 15.874 28.0788 16.4265 28.3713C16.5721 28.4497 16.7349 28.4907 16.9003 28.4907C17.0656 28.4907 17.2284 28.4497 17.374 28.3713C17.9265 28.0788 30.9003 20.9963 30.9003 12.2463C30.898 10.1916 30.0807 8.22172 28.6278 6.76882C27.1749 5.31591 25.205 4.49865 23.1503 4.49634ZM16.9003 26.3463C14.6178 25.0163 4.90027 18.9576 4.90027 12.2463C4.90225 10.722 5.50869 9.26057 6.5866 8.18267C7.6645 7.10476 9.12588 6.49832 10.6503 6.49634C13.0815 6.49634 15.1228 7.79134 15.9753 9.87134C16.0506 10.0547 16.1788 10.2116 16.3435 10.322C16.5082 10.4324 16.702 10.4914 16.9003 10.4914C17.0986 10.4914 17.2924 10.4324 17.4571 10.322C17.6218 10.2116 17.7499 10.0547 17.8253 9.87134C18.6778 7.78759 20.719 6.49634 23.1503 6.49634C24.6747 6.49832 26.136 7.10476 27.2139 8.18267C28.2918 9.26057 28.8983 10.722 28.9003 12.2463C28.9003 18.9476 19.1803 25.0151 16.9003 26.3463Z" fill="#18181B"/>
</svg>
