<svg width="33" height="33" viewBox="0 0 33 33" fill="none" xmlns="http://www.w3.org/2000/svg">
<path d="M16.2336 2.49609C13.0522 2.49973 10.002 3.76518 7.75238 6.01483C5.50273 8.26448 4.23728 11.3146 4.23364 14.4961C4.23364 17.4961 5.80364 21.3786 8.43489 24.8711C11.0824 28.3898 13.9974 30.4961 16.2336 30.4961C18.4699 30.4961 21.3849 28.3948 24.0324 24.8711C26.6636 21.3711 28.2336 17.4961 28.2336 14.4961C28.23 11.3146 26.9646 8.26448 24.7149 6.01483C22.4653 3.76518 19.4151 2.49973 16.2336 2.49609ZM22.4349 23.6736C20.2636 26.5573 17.7724 28.4961 16.2336 28.4961C14.6949 28.4961 12.2036 26.5573 10.0324 23.6736C7.68989 20.5586 6.23364 17.0423 6.23364 14.4961C6.23364 11.8439 7.28721 9.30039 9.16257 7.42503C11.0379 5.54966 13.5815 4.49609 16.2336 4.49609C18.8858 4.49609 21.4293 5.54966 23.3047 7.42503C25.1801 9.30039 26.2336 11.8439 26.2336 14.4961C26.2336 17.0423 24.7774 20.5586 22.4349 23.6736ZM15.2336 17.4961C15.2336 16.17 14.7069 14.8982 13.7692 13.9606C12.8315 13.0229 11.5597 12.4961 10.2336 12.4961C9.70321 12.4961 9.1945 12.7068 8.81943 13.0819C8.44436 13.457 8.23364 13.9657 8.23364 14.4961C8.23364 15.8222 8.76043 17.0939 9.69811 18.0316C10.6358 18.9693 11.9076 19.4961 13.2336 19.4961C13.7641 19.4961 14.2728 19.2854 14.6479 18.9103C15.0229 18.5352 15.2336 18.0265 15.2336 17.4961ZM10.2336 14.4961C11.0293 14.4961 11.7924 14.8122 12.355 15.3748C12.9176 15.9374 13.2336 16.7004 13.2336 17.4961C12.438 17.4961 11.6749 17.18 11.1123 16.6174C10.5497 16.0548 10.2336 15.2917 10.2336 14.4961ZM22.2336 12.4961C20.9076 12.4961 19.6358 13.0229 18.6981 13.9606C17.7604 14.8982 17.2336 16.17 17.2336 17.4961C17.2336 18.0265 17.4444 18.5352 17.8194 18.9103C18.1945 19.2854 18.7032 19.4961 19.2336 19.4961C19.8903 19.4961 20.5404 19.3668 21.1471 19.1155C21.7537 18.8642 22.3049 18.4959 22.7692 18.0316C23.2335 17.5673 23.6018 17.0161 23.853 16.4095C24.1043 15.8029 24.2336 15.1527 24.2336 14.4961C24.2336 13.9657 24.0229 13.457 23.6479 13.0819C23.2728 12.7068 22.7641 12.4961 22.2336 12.4961ZM19.2336 17.4961C19.2336 16.7004 19.5497 15.9374 20.1123 15.3748C20.6749 14.8122 21.438 14.4961 22.2336 14.4961C22.2336 15.2917 21.9176 16.0548 21.355 16.6174C20.7924 17.18 20.0293 17.4961 19.2336 17.4961ZM19.2336 23.4961C19.2336 23.7613 19.1283 24.0157 18.9408 24.2032C18.7532 24.3907 18.4989 24.4961 18.2336 24.4961H14.2336C13.9684 24.4961 13.7141 24.3907 13.5265 24.2032C13.339 24.0157 13.2336 23.7613 13.2336 23.4961C13.2336 23.2309 13.339 22.9765 13.5265 22.789C13.7141 22.6014 13.9684 22.4961 14.2336 22.4961H18.2336C18.4989 22.4961 18.7532 22.6014 18.9408 22.789C19.1283 22.9765 19.2336 23.2309 19.2336 23.4961Z" fill="#6366F1"/>
</svg>
