<svg width="33" height="33" viewBox="0 0 33 33" fill="none" xmlns="http://www.w3.org/2000/svg">
<path d="M12.9327 5.12747C12.8996 5.00025 12.8919 4.86775 12.9101 4.73755C12.9282 4.60736 12.9719 4.48202 13.0385 4.3687C13.1051 4.25539 13.1935 4.15633 13.2984 4.07719C13.4034 3.99804 13.5229 3.94037 13.6502 3.90747C15.782 3.35767 18.0184 3.35767 20.1502 3.90747C20.3863 3.96793 20.5922 4.11254 20.7292 4.31412C20.8663 4.51571 20.9249 4.7604 20.8942 5.0022C20.8635 5.24399 20.7456 5.46625 20.5625 5.6272C20.3795 5.78814 20.1439 5.8767 19.9002 5.87622C19.8159 5.87578 19.7319 5.86486 19.6502 5.84372C17.8464 5.37848 15.954 5.37848 14.1502 5.84372C13.8938 5.90987 13.6216 5.87161 13.3934 5.73733C13.1651 5.60306 12.9995 5.38373 12.9327 5.12747ZM7.62396 7.38872C6.08226 8.95863 4.96405 10.894 4.37396 13.0137C4.30318 13.2693 4.33684 13.5426 4.46753 13.7734C4.59822 14.0041 4.81523 14.1736 5.07083 14.2443C5.32644 14.3151 5.59969 14.2815 5.83047 14.1508C6.06126 14.0201 6.23068 13.8031 6.30146 13.5475C6.8003 11.7532 7.74652 10.1149 9.05146 8.78622C9.22214 8.59422 9.31239 8.3439 9.30349 8.08716C9.29459 7.83042 9.18722 7.58695 9.00365 7.40723C8.82008 7.22752 8.57438 7.12535 8.31751 7.1219C8.06064 7.11845 7.81229 7.214 7.62396 7.38872ZM6.30146 19.44C6.26633 19.3134 6.20662 19.195 6.12573 19.0915C6.04484 18.988 5.94436 18.9015 5.83003 18.8368C5.7157 18.7722 5.58975 18.7307 5.45938 18.7147C5.32901 18.6987 5.19677 18.7086 5.07021 18.7437C4.94365 18.7788 4.82524 18.8386 4.72176 18.9194C4.61828 19.0003 4.53174 19.1008 4.46708 19.2151C4.40243 19.3295 4.36093 19.4554 4.34495 19.5858C4.32897 19.7162 4.33883 19.8484 4.37396 19.975C4.9644 22.0945 6.08257 24.0298 7.62396 25.6C7.80994 25.7891 8.06344 25.8966 8.32869 25.8988C8.59393 25.9011 8.8492 25.7978 9.03833 25.6118C9.22747 25.4259 9.33497 25.1724 9.3372 24.9071C9.33943 24.6419 9.23619 24.3866 9.05021 24.1975C7.74688 22.8692 6.80123 21.2325 6.30146 19.44ZM19.6502 27.1487C17.8465 27.6144 15.954 27.6144 14.1502 27.1487C14.0223 27.1136 13.8888 27.1043 13.7572 27.1213C13.6257 27.1383 13.4989 27.1812 13.3842 27.2477C13.2694 27.3142 13.169 27.4028 13.0889 27.5084C13.0087 27.6141 12.9503 27.7346 12.9172 27.863C12.884 27.9914 12.8767 28.1251 12.8957 28.2563C12.9147 28.3876 12.9596 28.5137 13.0279 28.6274C13.0961 28.7412 13.1862 28.8402 13.2931 28.9187C13.3999 28.9973 13.5213 29.0538 13.6502 29.085C15.782 29.6348 18.0184 29.6348 20.1502 29.085C20.4034 29.0154 20.6191 28.8491 20.7507 28.6219C20.8823 28.3947 20.9193 28.1249 20.8536 27.8706C20.788 27.6164 20.625 27.3982 20.3998 27.2631C20.1747 27.1281 19.9054 27.087 19.6502 27.1487ZM28.7315 18.7462C28.6048 18.7111 28.4725 18.7013 28.342 18.7173C28.2116 18.7334 28.0856 18.775 27.9713 18.8397C27.8569 18.9045 27.7564 18.9912 27.6756 19.0948C27.5948 19.1985 27.5352 19.317 27.5002 19.4437C27.0016 21.2378 26.0554 22.8757 24.7502 24.2037C24.6582 24.2975 24.5856 24.4084 24.5364 24.5302C24.4873 24.652 24.4626 24.7823 24.4638 24.9136C24.4651 25.045 24.4921 25.1748 24.5435 25.2956C24.5949 25.4165 24.6696 25.5261 24.7633 25.6181C24.8571 25.7101 24.968 25.7827 25.0898 25.8319C25.2116 25.881 25.3419 25.9057 25.4732 25.9045C25.6046 25.9032 25.7344 25.8762 25.8553 25.8248C25.9761 25.7734 26.0857 25.6987 26.1777 25.605C27.7196 24.0352 28.8379 22.0998 29.4277 19.98C29.4632 19.8532 29.4734 19.7208 29.4576 19.5901C29.4418 19.4594 29.4004 19.3332 29.3357 19.2185C29.271 19.1039 29.1844 19.0032 29.0807 18.9221C28.977 18.8411 28.8583 18.7813 28.7315 18.7462ZM27.499 13.5537C27.5341 13.6803 27.5938 13.7987 27.6747 13.9022C27.7556 14.0057 27.8561 14.0922 27.9704 14.1568C28.0847 14.2215 28.2107 14.263 28.341 14.279C28.4714 14.295 28.6036 14.2851 28.7302 14.25C28.8568 14.2148 28.9752 14.1551 29.0787 14.0742C29.1821 13.9934 29.2687 13.8929 29.3333 13.7785C29.398 13.6642 29.4395 13.5383 29.4555 13.4079C29.4714 13.2775 29.4616 13.1453 29.4265 13.0187C28.8366 10.8989 27.7184 8.96346 26.1765 7.39372C26.0844 7.30007 25.9747 7.22548 25.8538 7.1742C25.7329 7.12292 25.6031 7.09596 25.4717 7.09486C25.3404 7.09375 25.2101 7.11853 25.0884 7.16777C24.9666 7.21701 24.8557 7.28976 24.7621 7.38185C24.6684 7.47394 24.5938 7.58357 24.5426 7.70449C24.4913 7.8254 24.4643 7.95524 24.4632 8.08657C24.4621 8.21791 24.4869 8.34818 24.5361 8.46994C24.5854 8.5917 24.6581 8.70257 24.7502 8.79622C26.054 10.1237 26.9997 11.7601 27.499 13.5525V13.5537Z" fill="#6366F1"/>
</svg>
