<svg width="33" height="33" viewBox="0 0 33 33" fill="none" xmlns="http://www.w3.org/2000/svg">
<path d="M24.0665 14.7723L27.709 11.3448L27.7303 11.3236C28.4805 10.5734 28.902 9.55583 28.902 8.49484C28.902 7.43385 28.4805 6.41632 27.7303 5.66609C26.98 4.91586 25.9625 4.49438 24.9015 4.49438C23.8405 4.49438 22.823 4.91586 22.0728 5.66609C22.0728 5.67359 22.059 5.67984 22.0515 5.68734L18.624 9.32984L8.24903 5.55484C8.07021 5.4898 7.87655 5.47713 7.69078 5.51832C7.50502 5.5595 7.33486 5.65283 7.20028 5.78734L4.20028 8.78734C4.09574 8.89196 4.01571 9.01847 3.96595 9.15775C3.9162 9.29703 3.89795 9.44561 3.91254 9.59279C3.92713 9.73997 3.97418 9.88208 4.05031 10.0089C4.12643 10.1357 4.22974 10.244 4.35278 10.3261L12.339 15.6498L10.4865 17.4961H7.90028C7.63541 17.4962 7.38142 17.6014 7.19403 17.7886L4.19403 20.7886C4.07703 20.9053 3.99078 21.0492 3.94299 21.2074C3.8952 21.3656 3.88737 21.5332 3.92018 21.6951C3.953 21.8571 4.02544 22.0084 4.13103 22.1355C4.23663 22.2627 4.37208 22.3616 4.52528 22.4236L9.12778 24.2648L10.9653 28.8586L10.9728 28.8786C11.0363 29.0325 11.1373 29.168 11.2666 29.273C11.3958 29.378 11.5492 29.449 11.7128 29.4797C11.8765 29.5103 12.0452 29.4997 12.2036 29.4486C12.3621 29.3976 12.5053 29.3078 12.6203 29.1873L15.604 26.2023C15.6974 26.1099 15.7716 25.9999 15.8224 25.8787C15.8733 25.7575 15.8997 25.6275 15.9003 25.4961V22.9098L17.7453 21.0648L23.069 29.0511C23.1511 29.1741 23.2594 29.2774 23.3862 29.3536C23.513 29.4297 23.6552 29.4767 23.8023 29.4913C23.9495 29.5059 24.0981 29.4877 24.2374 29.4379C24.3766 29.3882 24.5032 29.3081 24.6078 29.2036L27.6078 26.2036C27.7423 26.069 27.8356 25.8989 27.8768 25.7131C27.918 25.5273 27.9053 25.3337 27.8403 25.1548L24.0665 14.7723ZM24.0578 26.9261L18.734 18.9411C18.6524 18.8171 18.5442 18.7129 18.4173 18.6359C18.2904 18.5589 18.1479 18.5112 18.0003 18.4961C17.9665 18.4961 17.934 18.4961 17.9015 18.4961C17.7701 18.4962 17.6399 18.5221 17.5185 18.5725C17.3971 18.6229 17.2869 18.6968 17.194 18.7898L14.194 21.7898C14.0064 21.977 13.9007 22.231 13.9003 22.4961V25.0823L12.2665 26.7161L10.829 23.1211C10.7787 22.9963 10.7038 22.8829 10.6086 22.7878C10.5135 22.6926 10.4001 22.6176 10.2753 22.5673L6.68278 21.1298L8.31528 19.4961H10.9003C11.0316 19.4962 11.1617 19.4704 11.2831 19.4202C11.4045 19.37 11.5148 19.2964 11.6078 19.2036L14.6078 16.2036C14.7125 16.099 14.7928 15.9724 14.8427 15.833C14.8926 15.6936 14.9109 15.5448 14.8963 15.3975C14.8817 15.2501 14.8346 15.1079 14.7583 14.9809C14.682 14.854 14.5785 14.7456 14.4553 14.6636L6.47028 9.33859L8.15778 7.65234L18.5603 11.4348C18.7436 11.5022 18.9425 11.5144 19.1327 11.47C19.3228 11.4255 19.4958 11.3264 19.6303 11.1848L23.4978 7.07109C23.8747 6.70515 24.3806 6.50223 24.9059 6.50619C25.4313 6.51014 25.934 6.72065 26.3054 7.09223C26.6768 7.4638 26.8871 7.9666 26.8908 8.49196C26.8945 9.01731 26.6914 9.52304 26.3253 9.89984L22.2165 13.7661C22.0749 13.9006 21.9758 14.0735 21.9314 14.2637C21.887 14.4538 21.8992 14.6528 21.9665 14.8361L25.749 25.2386L24.0578 26.9261Z" fill="#71717A"/>
</svg>
