<svg width="33" height="33" viewBox="0 0 33 33" fill="none" xmlns="http://www.w3.org/2000/svg">
<path d="M17.4003 3.49622C14.0862 3.49986 10.9089 4.81798 8.56545 7.1614C6.22204 9.50482 4.90391 12.6821 4.90027 15.9962V26.5375C4.90093 27.0568 5.10751 27.5546 5.4747 27.9218C5.8419 28.289 6.33973 28.4956 6.85902 28.4962H17.4003C20.7155 28.4962 23.8949 27.1793 26.2391 24.8351C28.5833 22.4908 29.9003 19.3114 29.9003 15.9962C29.9003 12.681 28.5833 9.50159 26.2391 7.15738C23.8949 4.81318 20.7155 3.49622 17.4003 3.49622ZM17.4003 26.4962H6.90027V15.9962C6.90027 13.9195 7.51608 11.8894 8.66984 10.1627C9.82359 8.43601 11.4635 7.0902 13.3821 6.29548C15.3007 5.50076 17.4119 5.29283 19.4487 5.69797C21.4855 6.10312 23.3564 7.10314 24.8249 8.57159C26.2933 10.04 27.2934 11.911 27.6985 13.9478C28.1037 15.9846 27.8957 18.0958 27.101 20.0144C26.3063 21.933 24.9605 23.5729 23.2338 24.7266C21.507 25.8804 19.477 26.4962 17.4003 26.4962Z" fill="#6366F1"/>
</svg>
